<?xml version="1.0" encoding="utf-8"?>
<!-- Generator: Adobe Illustrator 23.0.0, SVG Export Plug-In . SVG Version: 6.00 Build 0)  -->
<svg version="1.1" id="Layer_1" xmlns="http://www.w3.org/2000/svg" xmlns:xlink="http://www.w3.org/1999/xlink" x="0px" y="0px"
	 viewBox="0 0 542.57 195.43" style="enable-background:new 0 0 542.57 195.43;" xml:space="preserve">
<path d="M115.26,61.92c-8.59,0-13.23,7.37-13.23,14.31c0,6.94,4.64,14.31,13.23,14.31c8.59,0,13.22-7.37,13.22-14.31
	C128.49,69.29,123.85,61.92,115.26,61.92 M115.26,99.47c-15.39,0-23.44-11.7-23.44-23.25c0-11.55,8.05-23.25,23.44-23.25
	c15.35,0,23.38,11.7,23.38,23.25C138.64,87.78,130.61,99.47,115.26,99.47"/>
<path d="M276.92,82.7h-10.03c-1.46,4.83-5.79,7.83-11.33,7.83c-7.92,0-13.67-6.02-13.67-14.31c0-7.11,4.65-14.31,13.54-14.31
	c6.07,0,10.5,3.51,11.6,9.17h9.81l0.52-0.52c-1.59-10.55-10.35-17.6-22.06-17.6c-15.47,0-23.57,11.7-23.57,23.25
	c0,11.55,8.14,23.25,23.7,23.25c12.78,0,20.15-8.08,21.96-16.3L276.92,82.7z"/>
<polygon points="205.23,97.59 205.23,54.12 195.89,54.12 195.34,54.67 195.34,83.53 174.91,54.12 164.93,54.12 164.32,54.73 
	164.32,98.33 173.62,98.33 174.29,97.67 174.29,69.3 194.65,98.33 204.49,98.33 "/>
<path d="M67.91,82.7h-9.85c-1.46,4.83-5.79,7.83-11.33,7.83c-7.92,0-13.67-6.02-13.67-14.31c0-7.11,4.65-14.31,13.54-14.31
	c6.07,0,10.51,3.51,11.6,9.17h9.69l0.61-0.61c-1.63-10.5-10.37-17.5-22.04-17.5C31,52.97,22.9,64.67,22.9,76.22
	c0,11.55,8.14,23.25,23.7,23.25c12.71,0,20.06-7.99,21.92-16.16L67.91,82.7z"/>
<polygon points="186.13,132.36 186.13,138.68 194.18,138.68 194.18,141.96 186.13,141.96 186.13,148.12 196.52,148.12 196.52,151.4 
	182.47,151.4 182.47,129.08 196.52,129.08 196.52,132.36 "/>
<path d="M208.91,144.1c0,2.9,1.82,4.56,4.34,4.56c2.04,0,3.67-1.31,3.67-3.32c0-2.26-2.01-3-3.54-3.54
	c-4.08-1.43-7.37-2.68-7.37-7.14c0-3.7,3.19-6.12,6.92-6.12c4.02,0,7.11,2.84,7.11,6.99h-3.67c0-2.2-1.28-3.7-3.35-3.7
	c-1.82,0-3.35,0.96-3.35,2.84c0,1.82,1.6,2.68,3.25,3.28c3.47,1.24,7.65,2.71,7.65,6.98c0,4.59-3.51,7.02-7.65,7.02
	c-4.05,0-7.69-2.84-7.69-7.85H208.91z"/>
<polygon points="234.27,132.36 228.76,132.36 228.76,129.08 243.49,129.08 243.49,132.36 237.94,132.36 237.94,151.4 234.27,151.4 
	"/>
<path d="M272.52,132.78c4.05,0,4.91-1.02,4.91-3.7h3.48v22.32h-3.8v-15.72h-4.59V132.78z"/>
<path d="M296.19,136.51c0,2.46,1.66,4.53,4.21,4.53c2.52,0,4.15-2.07,4.15-4.53c0-2.46-1.63-4.53-4.15-4.53
	C297.85,131.98,296.19,134.05,296.19,136.51 M308.21,136.51c0,1.72-0.61,3.25-1.44,4.62l-6.38,10.27h-4.21l4.69-7.08h-0.48
	c-4.78,0-7.88-3.6-7.88-7.81c0-4.21,3.09-7.81,7.88-7.81C305.12,128.7,308.21,132.3,308.21,136.51"/>
<path d="M328.35,135.2c0-1.69-1.28-3.22-3.41-3.22c-2.17,0-3.44,1.5-3.44,3.22c0,1.75,1.28,3.25,3.44,3.25
	C327.07,138.45,328.35,136.92,328.35,135.2 M328.89,144.96c0-1.82-1.4-3.57-3.96-3.57c-2.58,0-3.99,1.69-3.99,3.57
	c0,1.91,1.5,3.54,3.99,3.54C327.42,148.5,328.89,146.81,328.89,144.96 M317.28,144.96c0-2.14,0.99-4.5,3.25-5.29
	c-2.01-0.89-2.71-2.84-2.71-4.62c0-3.44,2.65-6.35,7.11-6.35c4.43,0,7.08,2.97,7.08,6.35c0,1.79-0.7,3.73-2.71,4.62
	c2.26,0.8,3.25,3.22,3.25,5.29c0,3.57-2.84,6.83-7.62,6.83C320.15,151.79,317.28,148.66,317.28,144.96"/>
<path d="M345.96,136.51c0,2.46,1.66,4.53,4.21,4.53c2.52,0,4.15-2.07,4.15-4.53c0-2.46-1.63-4.53-4.15-4.53
	C347.62,131.98,345.96,134.05,345.96,136.51 M357.98,136.51c0,1.72-0.61,3.25-1.43,4.62l-6.38,10.27h-4.21l4.69-7.08h-0.48
	c-4.78,0-7.88-3.6-7.88-7.81c0-4.21,3.09-7.81,7.88-7.81C354.89,128.7,357.98,132.3,357.98,136.51"/>
<rect x="246.83" y="147.48" width="4.44" height="4.15"/>
<polygon points="399.78,97.79 399.78,90.4 379.41,90.4 379.41,80.25 393.7,80.25 394.42,79.52 394.42,72.52 379.41,72.52 
	379.41,62.04 399.23,62.04 399.78,61.49 399.78,54.12 370.12,54.12 369.45,54.79 369.45,98.33 399.25,98.33 "/>
<polygon points="515.96,97.79 515.96,90.4 495.58,90.4 495.58,80.25 509.87,80.25 510.59,79.52 510.59,72.52 495.58,72.52 
	495.58,62.04 515.4,62.04 515.96,61.49 515.96,54.12 486.29,54.12 485.62,54.79 485.62,98.33 515.42,98.33 "/>
<polygon points="460.11,62.07 460.11,54.12 426.42,54.12 425.68,54.86 425.68,62.68 437.88,62.68 437.88,98.33 447.84,98.33 
	447.84,62.68 459.51,62.68 "/>
<path d="M322.76,75.65h-7.94V62.17h7.94c4.44,0,7.31,2.77,7.31,7.06C330.06,73.31,327.4,75.65,322.76,75.65 M341.26,97.59
	l-10.04-15.5L331.4,82c5.89-2.77,8.75-6.95,8.75-12.77c0-8.9-6.6-15.11-16.06-15.11h-18.55l-0.69,0.69v43.58h9.96V83.7l6.92,0.08
	l8.85,14.66h10.68V97.59z"/>
</svg>
